# xmcd
#
# Track frame offsets:
# 150
# 5151
# 7725
# 11684
# 15834
# 19703
# 24738
# 30164
# 36342
# 41754
# 46287
# 48335
# 51920
# 57015
# 62518
# 65789
# 69232
# 74354
# 80422
# 83835
# 89084
# 91724
# 95983
# 100772
# 104723
# 108465
# 112151
# 119466
# 124468
# 128839
# 133005
# 136968
# 139682
# 145043
# 147778
# 150869
# 155225
# 160134
# 162721
# 167412
# 170815
# 175479
# 180001
# 186065
# 189872
# 193702
# 197659
# 201386
# 203397
# 207657
# 213681
# 218349
# 222833
# 230474
# 235994
# 240557
# 246042
# 250858
# 259939
# 263169
# 266393
# 272635
#
# Disc length: 3933 seconds
#
# Revision: 1
# Processed by: cddbd v1.5.2PL0 Copyright (c) Steve Scherf et al.
# Submitted via: B's Recorder GOLD CDDB Client
#
DISCID=7b0f5b3e
DTITLE=オムニバス - NHKにほんごであそぼCD二
DYEAR=1900
DGENRE=
TTITLE0=うなりやベベンのいろはにほへと
TTITLE1=いろはにほへと
TTITLE2=うなりやベベンのいろはにこんぺいとう
TTITLE3=おちゃをのみにきてください
TTITLE4=さよなら三角
TTITLE5=うなりやベベンの草枕
TTITLE6=たけのこめだした
TTITLE7=うなりやベベンのこよひ逢ふ人
TTITLE8=菅原伝授手習鑑
TTITLE9=うなりやベベンの学びて思わざれば…
TTITLE10=為せば成る…
TTITLE11=くまさんくまさん
TTITLE12=宵待草
TTITLE13=たなばたのかみさん
TTITLE14=夏草や…
TTITLE15=うなりやベベンのちんちん小ばかま
TTITLE16=はやしのなかから
TTITLE17=うなりやベベンの平家物語
TTITLE18=おふねがぎっちらこ
TTITLE19=うなりやベベンのクラムボン
TTITLE20=驚き桃の木…
TTITLE21=うちのせんだんのき
TTITLE22=うなりやベベンの阿吽
TTITLE23=きりすちょん
TTITLE24=うなりやベベンのきりぎりすの山登り
TTITLE25=小謡~浄瑠璃風~
TTITLE26=ひとやまこえて
TTITLE27=うなりやベベンのわんにゃんけんこん
TTITLE28=げろげろがっせん
TTITLE29=うなりやベベンの鞭声粛々
TTITLE30=うまはとしとし
TTITLE31=風の又三郎
TTITLE32=もどろもどろ
TTITLE33=駆込み訴え
TTITLE34=こどもとこどもがけんかして
TTITLE35=うなりやベベンの天知る地知る
TTITLE36=じごくごくらく
TTITLE37=南無釈迦じゃ…
TTITLE38=うなりやベベンの南無釈迦じゃ
TTITLE39=寿限無
TTITLE40=ちょっとぱーさん
TTITLE41=我思う…
TTITLE42=うなりやベベンの我思う
TTITLE43=おてらのつねこさん
TTITLE44=笑う門には
TTITLE45=いちにのさんものしいたけ
TTITLE46=春の七草
TTITLE47=七草ぱくぱく
TTITLE48=いちわのからす
TTITLE49=うなりやベベンの積もった雪
TTITLE50=つるつる
TTITLE51=うなりやベベンのうなり大海
TTITLE52=汚れつちまつた悲しみに……
TTITLE53=うなりやベベンのどうしようもないわたし…
TTITLE54=おせよおせよ
TTITLE55=うなりやベベンの雪渡り
TTITLE56=もちっこやいて
TTITLE57=うなりやベベンのもちづくし
TTITLE58=ごはん炊きの歌
TTITLE59=ちゃつぼ
TTITLE60=うなりやベベンの雪とけて
TTITLE61=雨ニモマケズ
EXTD=
EXTT0=
EXTT1=
EXTT2=
EXTT3=
EXTT4=
EXTT5=
EXTT6=
EXTT7=
EXTT8=
EXTT9=
EXTT10=
EXTT11=
EXTT12=
EXTT13=
EXTT14=
EXTT15=
EXTT16=
EXTT17=
EXTT18=
EXTT19=
EXTT20=
EXTT21=
EXTT22=
EXTT23=
EXTT24=
EXTT25=
EXTT26=
EXTT27=
EXTT28=
EXTT29=
EXTT30=
EXTT31=
EXTT32=
EXTT33=
EXTT34=
EXTT35=
EXTT36=
EXTT37=
EXTT38=
EXTT39=
EXTT40=
EXTT41=
EXTT42=
EXTT43=
EXTT44=
EXTT45=
EXTT46=
EXTT47=
EXTT48=
EXTT49=
EXTT50=
EXTT51=
EXTT52=
EXTT53=
EXTT54=
EXTT55=
EXTT56=
EXTT57=
EXTT58=
EXTT59=
EXTT60=
EXTT61=
PLAYORDER=
